<svg width="16" height="10" viewBox="0 0 16 10" fill="none" xmlns="http://www.w3.org/2000/svg">
<path d="M8.79433 8.91905L14.8815 2.56208C14.9825 2.45767 15.0626 2.33345 15.1173 2.19659C15.172 2.05972 15.2002 1.91292 15.2002 1.76465C15.2002 1.61639 15.172 1.46959 15.1173 1.33272C15.0626 1.19586 14.9825 1.07164 14.8815 0.967225C14.6796 0.75804 14.4066 0.640625 14.122 0.640625C13.8373 0.640625 13.5643 0.75804 13.3624 0.967225L7.97552 6.52677L2.64251 0.967225C2.44065 0.758039 2.16758 0.640624 1.88296 0.640624C1.59833 0.640624 1.32527 0.758039 1.12341 0.967225C1.02161 1.07124 0.940619 1.19529 0.885138 1.33217C0.829657 1.46906 0.800785 1.61605 0.800194 1.76465C0.800785 1.91325 0.829657 2.06025 0.885138 2.19714C0.940619 2.33402 1.02161 2.45806 1.12341 2.56208L7.21058 8.91905C7.31147 9.03306 7.43392 9.12404 7.57021 9.18627C7.70649 9.2485 7.85367 9.28063 8.00246 9.28063C8.15124 9.28063 8.29842 9.2485 8.43471 9.18627C8.57099 9.12404 8.69344 9.03306 8.79433 8.91905Z" fill="white"/>
</svg>
